<svg width="1600" height="900" viewBox="0 0 1600 900" fill="none" xmlns="http://www.w3.org/2000/svg">
  <defs>
    <linearGradient id="bg" x1="0" y1="0" x2="1" y2="1">
      <stop offset="0%" stop-color="#0f172a" />
      <stop offset="45%" stop-color="#0b1220" />
      <stop offset="100%" stop-color="#1f2937" />
    </linearGradient>
    <linearGradient id="accent" x1="0" y1="0" x2="1" y2="0">
      <stop offset="0%" stop-color="#22d3ee" stop-opacity="0.7" />
      <stop offset="100%" stop-color="#ec4899" stop-opacity="0.7" />
    </linearGradient>
    <filter id="glow" x="-20%" y="-20%" width="140%" height="140%" color-interpolation-filters="sRGB">
      <feGaussianBlur stdDeviation="16" />
    </filter>
  </defs>
  <rect width="1600" height="900" rx="32" fill="url(#bg)" />
  <rect x="120" y="120" width="1360" height="660" rx="28" fill="#111827" stroke="#1f2937" stroke-width="2" />
  <rect x="160" y="170" width="520" height="240" rx="24" fill="#0b1220" stroke="#1f2937" stroke-width="2" />
  <rect x="720" y="170" width="720" height="240" rx="24" fill="#0b1220" stroke="#1f2937" stroke-width="2" />
  <rect x="160" y="440" width="1280" height="300" rx="24" fill="#0b1220" stroke="#1f2937" stroke-width="2" />
  <rect x="200" y="210" width="220" height="16" rx="8" fill="#334155" />
  <rect x="200" y="245" width="180" height="12" rx="6" fill="#1f2937" />
  <rect x="200" y="275" width="260" height="12" rx="6" fill="#1f2937" />
  <rect x="760" y="210" width="240" height="16" rx="8" fill="#334155" />
  <rect x="760" y="248" width="300" height="12" rx="6" fill="#1f2937" />
  <rect x="760" y="278" width="240" height="12" rx="6" fill="#1f2937" />
  <rect x="200" y="480" width="500" height="18" rx="9" fill="#334155" />
  <rect x="200" y="520" width="1200" height="12" rx="6" fill="#1f2937" />
  <rect x="200" y="548" width="1120" height="12" rx="6" fill="#1f2937" />
  <rect x="200" y="576" width="1060" height="12" rx="6" fill="#1f2937" />
  <rect x="200" y="604" width="1180" height="12" rx="6" fill="#1f2937" />
  <rect x="200" y="632" width="980" height="12" rx="6" fill="#1f2937" />
  <circle cx="140" cy="140" r="8" fill="#ef4444" />
  <circle cx="166" cy="140" r="8" fill="#f59e0b" />
  <circle cx="192" cy="140" r="8" fill="#10b981" />
  <rect x="260" y="135" width="260" height="10" rx="5" fill="#1f2937" />
  <rect x="700" y="120" width="640" height="8" rx="4" fill="url(#accent)" filter="url(#glow)" />
  <text x="200" y="350" fill="#94a3b8" font-family="Inter, Arial, sans-serif" font-size="18">
    Aperçu dashboard (remplacez cette image)
  </text>
</svg>
